<?xml version="1.0" encoding="utf-8"?>
<!-- Generator: Adobe Illustrator 24.0.2, SVG Export Plug-In . SVG Version: 6.00 Build 0)  -->
<svg version="1.1" id="Layer_1" xmlns:svgjs="http://svgjs.com/svgjs"
	 xmlns="http://www.w3.org/2000/svg" xmlns:xlink="http://www.w3.org/1999/xlink" x="0px" y="0px" viewBox="0 0 512 512"
	 style="enable-background:new 0 0 512 512;" xml:space="preserve">
<style type="text/css">
	.st0{fill:#FFFFFF;}
	.st1{opacity:0.1;fill:#38393A;enable-background:new    ;}
	.st2{fill:none;stroke:#38393A;stroke-width:10;stroke-linecap:round;stroke-linejoin:round;stroke-miterlimit:10;}
	.st3{fill:#38393A;}
	.st4{fill:#00A2FF;}
</style>
<g>
	<g>
		<path class="st0" d="M428.4,171.9c-8.4-8.4-18-14.9-28.7-19.8c-28-12.7-50.1-35.4-62.4-63.6C314.3,36.4,262.3,0,201.7,0
			C122.4-0.1,56.6,63.2,53.6,142.4c-1.3,33.9,8.9,65.4,26.9,91c22.9,32.4,28.8,73.8,17,111.7C80.7,399,86.6,450,118.5,481.9
			c55.9,55.9,170.6,31.8,256.2-53.8C460.2,342.5,484.3,227.8,428.4,171.9L428.4,171.9z"/>
		<path class="st1" d="M319.6,461.2v-74.8c0-6.3,3.2-12.2,8.5-15.6c38.8-25.4,73.5-65.4,77.2-113c10.2-131.3-117.4-202.4-221.1-131
			c0,0-76.6,53.4-78.1,170c0,2.6,2.1,4.7,4.7,4.7h29.5c0,0-6.6,87.1,8.6,95.1c6.8,3.6,24.6,5.3,42.9,3.9v60.6c0,2.8,2.2,5,5,5h117.9
			C317.4,466.2,319.6,464,319.6,461.2L319.6,461.2z"/>
		<path class="st0" d="M319.6,439.2v-79.8c0-6.3,3.2-12.2,8.5-15.6c38.8-25.4,73.5-65.4,77.2-113c10.2-131.3-117.4-202.4-221.1-131
			c0,0-76.6,53.4-78.1,170c0,2.6,2.1,4.7,4.7,4.7h29.5c0,0-6.6,87.1,8.6,95.1c6.8,3.6,24.6,5.3,42.9,3.9v65.6L319.6,439.2
			L319.6,439.2z"/>
		<path class="st0" d="M404.9,197.8H117.7c13.2-40.3,34.7-67.7,49.7-83H369C388.2,136,401.4,164.3,404.9,197.8z"/>
		<path class="st2" d="M404.9,197.8H117.7c13.2-40.3,34.7-67.7,49.7-83H369C388.2,136,401.4,164.3,404.9,197.8z"/>
		<g>
			<path class="st3" d="M266.7,202.8h-43c-2.8,0-5-2.2-5-5s2.2-5,5-5h43c2.8,0,5,2.2,5,5S269.4,202.8,266.7,202.8z"/>
		</g>
		<g>
			<path class="st3" d="M221.7,242.4h-57.8c-2.8,0-5-2.2-5-5s2.2-5,5-5h52.8v-63.6h-28.8c-2.8,0-5-2.2-5-5s2.2-5,5-5h33.8
				c2.8,0,5,2.2,5,5v73.6C226.7,240.1,224.4,242.4,221.7,242.4z"/>
		</g>
		<ellipse class="st4" cx="184.7" cy="163.7" rx="12.6" ry="12.6"/>
		<ellipse class="st4" cx="159.4" cy="237.4" rx="12.6" ry="12.6"/>
		<path class="st0" d="M165.5,237.4c0,3.4-2.8,6.1-6.1,6.1s-6.1-2.8-6.1-6.1s2.8-6.1,6.1-6.1C162.8,231.2,165.5,234,165.5,237.4z"/>
		<g>
			<g>
				<path class="st3" d="M241.2,304.6h-99.4c-2.8,0-5-2.2-5-5s2.2-5,5-5h99.4c2.8,0,5,2.2,5,5C246.2,302.4,244,304.6,241.2,304.6z"
					/>
			</g>
			<g>
				
					<ellipse transform="matrix(0.5572 -0.8304 0.8304 0.5572 -137.4047 341.7467)" class="st4" cx="251.7" cy="299.7" rx="12.7" ry="12.7"/>
				<path class="st0" d="M257.8,299.6c0,3.4-2.8,6.1-6.1,6.1s-6.1-2.8-6.1-6.1s2.8-6.1,6.1-6.1S257.8,296.2,257.8,299.6z"/>
			</g>
		</g>
		<path class="st0" d="M190.8,163.7c0,3.4-2.8,6.1-6.1,6.1s-6.1-2.8-6.1-6.1s2.8-6.1,6.1-6.1C188.1,157.6,190.8,160.3,190.8,163.7z"
			/>
		<g>
			<path class="st3" d="M309.9,150.3c-2.8,0-5-2.2-5-5V79.6c0-2.8,2.2-5,5-5s5,2.2,5,5v65.7C314.9,148.1,312.6,150.3,309.9,150.3z"
				/>
		</g>
		<g>
			<path class="st3" d="M271.7,395.4c-2.8,0-5-2.2-5-5v-52c0-2.8,2.2-5,5-5h33.2v-89.7c0-2.8,2.2-5,5-5s5,2.2,5,5v94.7
				c0,2.8-2.2,5-5,5h-33.2v47C276.7,393.2,274.4,395.4,271.7,395.4z"/>
		</g>
		<g>
			<circle class="st4" cx="271.7" cy="396.8" r="12.6"/>
			<path class="st0" d="M277.8,396.8c0,3.4-2.8,6.1-6.1,6.1s-6.1-2.8-6.1-6.1s2.8-6.1,6.1-6.1S277.8,393.4,277.8,396.8z"/>
		</g>
		<g>
			<path class="st3" d="M224.8,443c-2.8,0-5-2.2-5-5v-66.6c0-2.8,2.2-5,5-5s5,2.2,5,5V438C229.8,440.8,227.6,443,224.8,443z"/>
		</g>
		<g>
			<ellipse class="st4" cx="224.8" cy="358.8" rx="12.6" ry="12.6"/>
			<path class="st0" d="M230.9,358.8c0,3.4-2.8,6.1-6.1,6.1s-6.1-2.8-6.1-6.1s2.8-6.1,6.1-6.1S230.9,355.4,230.9,358.8z"/>
		</g>
		<g>
			<path class="st3" d="M395.4,274.1H351c-2.8,0-5-2.2-5-5s2.2-5,5-5h44.4c2.8,0,5,2.2,5,5S398.2,274.1,395.4,274.1z"/>
		</g>
		<g>
			<g>
				<ellipse class="st4" cx="344.8" cy="269.1" rx="12.6" ry="12.6"/>
				<path class="st0" d="M351,269.1c0,3.4-2.8,6.1-6.1,6.1s-6.1-2.8-6.1-6.1s2.8-6.1,6.1-6.1S351,265.7,351,269.1z"/>
			</g>
		</g>
		<g>
			<path class="st3" d="M319.6,380.3c-2.8,0-5-2.2-5-5v-15.9c0-8,4-15.4,10.7-19.8c63.2-41.3,73.5-90.1,75-109.2
				c2.3-29-2.2-55.7-13.2-79.4c-10.2-21.8-25.8-40.2-45.3-53.2c-39.5-26.4-90.3-28.4-135.7-5.4c-2.5,1.3-5.5,0.3-6.7-2.2
				c-1.3-2.5-0.3-5.5,2.2-6.7c48.7-24.7,103.1-22.5,145.7,6c21,14,37.8,33.8,48.8,57.3c11.8,25.2,16.5,53.6,14.1,84.4
				c-3.4,43.4-32.3,86-79.4,116.8c-3.9,2.5-6.2,6.8-6.2,11.4v15.9C324.6,378.1,322.4,380.3,319.6,380.3L319.6,380.3z"/>
		</g>
		<g>
			<path class="st3" d="M319.6,444.2c-2.8,0-5-2.2-5-5v-29.9c0-2.8,2.2-5,5-5s5,2.2,5,5v29.9C324.6,442,322.4,444.2,319.6,444.2z"/>
		</g>
		<g>
			<path class="st3" d="M191.8,444.2c-2.8,0-5-2.2-5-5V379c-15.1,0.6-32.2-0.6-40.2-4.8c-5.6-3-12.2-11.9-12.7-54.9
				c-0.2-16,0.6-31.7,1-39.6h-24.1c-2.6,0-5-1-6.9-2.9c-1.8-1.9-2.8-4.3-2.8-6.9c1.2-94.1,50.3-147.9,71.3-166.7
				c2.1-1.8,5.2-1.7,7.1,0.4c1.8,2.1,1.7,5.2-0.4,7.1c-20,17.9-66.6,69.1-67.9,159.1h29.1c1.4,0,2.7,0.6,3.7,1.6s1.4,2.4,1.3,3.8
				c0,0.2-1.6,21.9-1.4,44.2c0.5,42,7,46,7.3,46.1c5.1,2.7,20.9,4.8,40.2,3.4c1.4-0.1,2.7,0.4,3.8,1.3c1,0.9,1.6,2.3,1.6,3.7v65.6
				C196.8,442,194.5,444.2,191.8,444.2L191.8,444.2z"/>
		</g>
		<ellipse class="st4" cx="309.9" cy="194.5" rx="49.2" ry="49.2"/>
		<ellipse class="st0" cx="309.9" cy="194.5" rx="24.6" ry="24.6"/>
		<ellipse class="st0" cx="296.6" cy="219.2" rx="11.4" ry="11.4"/>
		<g>
			<path class="st3" d="M296.6,235.5c-4.2,0-8.4-1.6-11.6-4.8c-6.4-6.4-6.4-16.7,0-23.1c6.4-6.4,16.7-6.4,23.1,0s6.4,16.7,0,23.1
				C304.9,233.9,300.8,235.5,296.6,235.5L296.6,235.5z M296.6,212.8c-1.6,0-3.3,0.6-4.5,1.9c-2.5,2.5-2.5,6.5,0,9s6.5,2.5,9,0
				s2.5-6.5,0-9C299.8,213.4,298.2,212.8,296.6,212.8L296.6,212.8z"/>
		</g>
		<g>
			<path class="st0" d="M70.8,271.8c-7.2,0-13-5.8-13-13s5.8-13,13-13s13,5.8,13,13C83.8,266,78,271.8,70.8,271.8z M70.8,255.8
				c-1.7,0-3,1.4-3,3s1.4,3,3,3s3-1.4,3-3C73.8,257.1,72.5,255.8,70.8,255.8L70.8,255.8z"/>
			<path class="st0" d="M429.8,410.9c-7.2,0-13-5.8-13-13s5.8-13,13-13s13,5.8,13,13S436.9,410.9,429.8,410.9z M429.8,394.9
				c-1.7,0-3,1.4-3,3c0,1.7,1.4,3,3,3s3-1.4,3-3S431.4,394.9,429.8,394.9z"/>
			<path class="st0" d="M375.8,85.3c-1.3,0-2.6-0.5-3.5-1.5L361,72.5c-2-2-2-5.1,0-7.1l11.3-11.3c0.9-0.9,2.2-1.5,3.5-1.5
				s2.6,0.5,3.5,1.5l11.3,11.3c0.9,0.9,1.5,2.2,1.5,3.5s-0.5,2.6-1.5,3.5l-11.3,11.3C378.3,84.8,377,85.3,375.8,85.3z M371.5,69
				l4.2,4.2L380,69l-4.2-4.2L371.5,69z"/>
			<path class="st0" d="M78.8,334.7c-1.3,0-2.6-0.5-3.5-1.5L64,321.9c-0.9-0.9-1.5-2.2-1.5-3.5s0.5-2.6,1.5-3.5l11.3-11.3
				c2-2,5.1-2,7.1,0l11.3,11.3c0.9,0.9,1.5,2.2,1.5,3.5s-0.5,2.6-1.5,3.5l-11.3,11.3C81.4,334.2,80.1,334.7,78.8,334.7z M74.6,318.4
				l4.2,4.2l4.2-4.2l-4.2-4.2L74.6,318.4z"/>
			<path class="st4" d="M373.2,390.6c-1.3,0-2.6-0.5-3.5-1.5l-11.3-11.3c-0.9-0.9-1.5-2.2-1.5-3.5s0.5-2.6,1.5-3.5l11.3-11.3
				c2-2,5.1-2,7.1,0l11.3,11.3c0.9,0.9,1.5,2.2,1.5,3.5s-0.5,2.6-1.5,3.5l-11.3,11.3C375.8,390.1,374.5,390.6,373.2,390.6z
				 M369,374.3l4.2,4.2l4.2-4.2l-4.2-4.2L369,374.3z"/>
		</g>
	</g>
</g>
</svg>
