<?xml version="1.0" encoding="utf-8"?>
<!-- Generator: Adobe Illustrator 24.3.0, SVG Export Plug-In . SVG Version: 6.00 Build 0)  -->
<svg version="1.1" id="Layer_1" xmlns="http://www.w3.org/2000/svg" xmlns:xlink="http://www.w3.org/1999/xlink" x="0px" y="0px"
	 viewBox="0 0 300 300" style="enable-background:new 0 0 300 300;" xml:space="preserve">
<style type="text/css">
	.st0{fill:#F7DF1E;}
</style>
<g>
	<path class="st0" d="M0,0h300v300H0V0z"/>
	<path d="M78.9,250.7l23-13.9c4.4,7.9,8.5,14.5,18.1,14.5c9.3,0,15.1-3.6,15.1-17.7v-95.9h28.2V234c0,29.2-17.1,42.5-42.1,42.5
		C98.6,276.5,85.5,264.8,78.9,250.7"/>
	<path d="M178.6,247.7l23-13.3c6,9.9,13.9,17.1,27.8,17.1c11.7,0,19.1-5.8,19.1-13.9c0-9.7-7.7-13.1-20.5-18.7l-7-3
		c-20.3-8.7-33.8-19.5-33.8-42.5c0-21.1,16.1-37.3,41.3-37.3c17.9,0,30.8,6.2,40.1,22.6l-22,14.1c-4.8-8.7-10.1-12.1-18.1-12.1
		c-8.3,0-13.5,5.2-13.5,12.1c0,8.5,5.2,11.9,17.3,17.1l7,3c24,10.3,37.5,20.7,37.5,44.3c0,25.4-19.9,39.3-46.7,39.3
		C203.7,276.5,186.8,264,178.6,247.7"/>
</g>
</svg>
