<?xml version="1.0" encoding="utf-8"?>
<!-- Generator: Adobe Illustrator 24.3.0, SVG Export Plug-In . SVG Version: 6.00 Build 0)  -->
<svg version="1.1" id="Layer_1" xmlns="http://www.w3.org/2000/svg" xmlns:xlink="http://www.w3.org/1999/xlink" x="0px" y="0px"
	 viewBox="0 0 300 300" style="enable-background:new 0 0 300 300;" xml:space="preserve">
<style type="text/css">
	.st0{fill:#009900;}
</style>
<g>
	<path class="st0" d="M56.2,181.3c-1.7,0-3.4-0.7-4.6-1.9L13,140.8v34c0,3.6-2.9,6.5-6.5,6.5c-3.6,0-6.5-2.9-6.5-6.5v-49.7
		c0-2.6,1.6-5,4-6c2.4-1,5.2-0.5,7.1,1.4l38.6,38.6v-34c0-3.6,2.9-6.5,6.5-6.5s6.5,2.9,6.5,6.5v49.7c0,2.6-1.6,5-4,6
		C57.9,181.2,57.1,181.3,56.2,181.3"/>
	<path class="st0" d="M86.4,118.6l-1.8,3.3l-13.9,25.2l-1.8,3.2l1.8,3.2l13.9,24.4l1.9,3.3h36.3l1.8-3.7l10.3-20.9l4.6-9.5H129
		l-26.5,0.1c-3.4,0-6.6,3.1-6.6,6.5s3.2,6.6,6.6,6.5l16-0.1l-3.9,7.9H94.1l-10.2-17.9l10.3-18.6H116l5.1,10.4h13.1l-8.3-19.8
		l-1.8-3.7H86.4"/>
	<path class="st0" d="M152.4,118.6c-3.4,0-6.5,3.2-6.4,6.6v17h13v-17C159.1,121.7,155.9,118.5,152.4,118.6"/>
	<path class="st0" d="M173.3,181.4c-0.8,0-1.7-0.2-2.5-0.5c-2.4-1-4-3.4-4-6v-49.7c0-3.6,2.9-6.5,6.5-6.5s6.5,2.9,6.5,6.5v34
		l38.6-38.6c1.9-1.9,4.7-2.4,7.1-1.4c2.4,1,4,3.4,4,6v49.7c0,3.6-2.9,6.5-6.5,6.5s-6.5-2.9-6.5-6.5v-34l-38.6,38.6
		C176.7,180.8,175,181.4,173.3,181.4"/>
	<path class="st0" d="M277.8,150l20.3-20.2c2.5-2.5,2.6-6.7,0-9.2c-2.5-2.5-6.7-2.6-9.2,0l-20.3,20.2l-20.3-20.2
		c-2.6-2.5-6.7-2.5-9.2,0c-2.5,2.6-2.5,6.7,0,9.2l20.3,20.2l-20.2,20.1c-2.6,2.5-2.6,6.7,0,9.2c1.3,1.3,2.9,1.9,4.6,1.9
		c1.7,0,3.3-0.6,4.6-1.9l20.2-20.2l20.2,20.2c1.3,1.3,2.9,1.9,4.6,1.9c1.7,0,3.3-0.6,4.6-1.9c2.5-2.5,2.5-6.7,0-9.2L277.8,150"/>
	<path class="st0" d="M152.4,181.3c-3.4,0-6.5-3.2-6.4-6.6v-27.3h13v27.3C159.1,178.1,155.9,181.3,152.4,181.3"/>
</g>
</svg>
