<?xml version="1.0" encoding="utf-8"?>
<!-- Generator: Adobe Illustrator 24.3.0, SVG Export Plug-In . SVG Version: 6.00 Build 0)  -->
<svg version="1.1" id="Layer_1" xmlns="http://www.w3.org/2000/svg" xmlns:xlink="http://www.w3.org/1999/xlink" x="0px" y="0px"
	 viewBox="0 0 300 300" style="enable-background:new 0 0 300 300;" xml:space="preserve">
<style type="text/css">
	.st0{fill:#539E43;}
</style>
<g>
	<path class="st0" d="M150,300c-4.1,0-8-1.1-11.6-3l-36.7-21.8c-5.5-3-2.8-4.1-1.1-4.7c7.4-2.5,8.8-3,16.5-7.4
		c0.8-0.6,1.9-0.3,2.8,0.3l28.1,16.8c1.1,0.6,2.5,0.6,3.3,0l110-63.7c1.1-0.6,1.7-1.7,1.7-3V86.4c0-1.4-0.6-2.5-1.7-3L151.4,20
		c-1.1-0.6-2.5-0.6-3.3,0l-110,63.4c-1.1,0.6-1.7,1.9-1.7,3v127.1c0,1.1,0.6,2.5,1.7,3l30,17.4c16.3,8.3,26.5-1.4,26.5-11V97.4
		c0-1.7,1.4-3.3,3.3-3.3H112c1.7,0,3.3,1.4,3.3,3.3v125.4c0,21.8-11.9,34.5-32.5,34.5c-6.3,0-11.3,0-25.4-6.9l-28.9-16.5
		c-7.2-4.1-11.6-11.9-11.6-20.1V86.7c0-8.3,4.4-16,11.6-20.1l110-63.7c6.9-3.9,16.3-3.9,23.2,0l110,63.7
		c7.2,4.1,11.6,11.9,11.6,20.1v127.1c0,8.3-4.4,16-11.6,20.1l-110,63.7C158,299.2,153.9,300,150,300L150,300z M183.9,212.6
		c-48.2,0-58.2-22-58.2-40.8c0-1.7,1.4-3.3,3.3-3.3h14.3c1.7,0,3,1.1,3,2.8c2.2,14.6,8.5,21.8,37.8,21.8c23.2,0,33.1-5.2,33.1-17.6
		c0-7.2-2.8-12.4-38.9-16c-30-3-48.8-9.6-48.8-33.6c0-22.3,18.7-35.6,50.2-35.6c35.3,0,52.6,12.1,54.8,38.6c0,0.8-0.3,1.7-0.8,2.5
		c-0.6,0.6-1.4,1.1-2.2,1.1h-14.3c-1.4,0-2.8-1.1-3-2.5c-3.3-15.2-11.9-20.1-34.5-20.1c-25.4,0-28.4,8.8-28.4,15.4
		c0,8,3.6,10.5,37.8,14.9c33.9,4.4,49.9,10.7,49.9,34.5C238.7,198.9,218.9,212.6,183.9,212.6L183.9,212.6z"/>
</g>
</svg>
