<?xml version="1.0" encoding="utf-8"?>
<!-- Generator: Adobe Illustrator 24.0.2, SVG Export Plug-In . SVG Version: 6.00 Build 0)  -->
<svg version="1.1" id="Layer_1" xmlns:svgjs="http://svgjs.com/svgjs"
	 xmlns="http://www.w3.org/2000/svg" xmlns:xlink="http://www.w3.org/1999/xlink" x="0px" y="0px" viewBox="0 0 512 512"
	 style="enable-background:new 0 0 512 512;" xml:space="preserve">
<style type="text/css">
	.st0{fill:#FDFEFF;}
	.st1{fill:#00A2FF;}
	.st2{fill:#FFFFFF;}
	.st3{fill:#38393A;}
</style>
<g>
	<path class="st0" d="M411.2,155.2c-30,0-54.3-24.3-54.3-54.3C356.8,45.2,311.7,0,256,0S155.2,45.2,155.2,100.8
		c0,30-24.3,54.3-54.3,54.3C45.2,155.2,0,200.3,0,256s45.2,100.8,100.8,100.8c30,0,54.3,24.3,54.3,54.3
		c0,55.7,45.2,100.8,100.8,100.8s100.8-45.2,100.8-100.8c0-30,24.3-54.3,54.3-54.3c55.7,0,100.8-45.2,100.8-100.8
		S466.8,155.2,411.2,155.2L411.2,155.2z"/>
	<g>
		<g>
			<path class="st1" d="M339.9,73.3h-3v-3c0-2.8-2.2-5-5-5s-5,2.2-5,5v3h-3c-2.8,0-5,2.2-5,5s2.2,5,5,5h3v3c0,2.8,2.2,5,5,5
				s5-2.2,5-5v-3h3c2.8,0,5-2.2,5-5S342.7,73.3,339.9,73.3z"/>
			<path class="st2" d="M388.8,444.7h-3v-3c0-2.8-2.2-5-5-5s-5,2.2-5,5v3h-3c-2.8,0-5,2.2-5,5s2.2,5,5,5h3v3c0,2.8,2.2,5,5,5
				s5-2.2,5-5v-3h3c2.8,0,5-2.2,5-5S391.6,444.7,388.8,444.7z"/>
			<path class="st2" d="M388.8,63c-1.3,0-2.6-0.5-3.5-1.5l-4.5-4.5l-4.5,4.5c-2,2-5.1,2-7.1,0c-2-2-2-5.1,0-7.1l8-8c2-2,5.1-2,7.1,0
				l8,8c2,2,2,5.1,0,7.1C391.4,62.5,390.1,63,388.8,63z"/>
			<path class="st2" d="M140.8,462.7c-1.3,0-2.6-0.5-3.5-1.5l-4.5-4.5l-4.5,4.5c-2,2-5.1,2-7.1,0c-2-2-2-5.1,0-7.1l8-8
				c2-2,5.1-2,7.1,0l8,8c2,2,2,5.1,0,7.1C143.3,462.2,142,462.7,140.8,462.7z"/>
			<path class="st1" d="M190.7,454.7c-1.3,0-2.6-0.5-3.5-1.5l-4.5-4.5l-4.5,4.5c-2,2-5.1,2-7.1,0c-2-2-2-5.1,0-7.1l8-8
				c2-2,5.1-2,7.1,0l8,8c2,2,2,5.1,0,7.1C193.2,454.2,191.9,454.7,190.7,454.7z"/>
		</g>
	</g>
</g>
<path class="st3" d="M482,392v25.2c0,5.5-4.5,10-10,10H40c-5.5,0-10-4.5-10-10V392c0-5.5,4.5-10,10-10h136c1.5,0,2.8,0.6,3.8,1.7
	l12.9,14.9h126.7l12.9-14.9c1-1.1,2.3-1.7,3.8-1.7h136C477.5,382,482,386.4,482,392z"/>
<path class="st1" d="M452,378.6H60V128.9c0-9.5,7.7-17.2,17.2-17.2h357.7c9.5,0,17.2,7.7,17.2,17.2L452,378.6z"/>
<path class="st2" d="M482,365v25.2c0,5.5-4.5,10-10,10H40c-5.5,0-10-4.5-10-10V365c0-5.5,4.5-10,10-10h136c1.5,0,2.8,0.6,3.8,1.7
	l12.9,14.9h126.7l12.9-14.9c1-1.1,2.3-1.7,3.8-1.7h136C477.5,355,482,359.4,482,365z"/>
<path class="st3" d="M60,181.4c2.8,0,5-2.2,5-5v-47.5c0-6.7,5.5-12.2,12.2-12.2h357.7c6.7,0,12.2,5.5,12.2,12.2v47.5
	c0,2.8,2.2,5,5,5s5-2.2,5-5v-47.5c0-12.2-10-22.2-22.2-22.2H77.2c-12.2,0-22.2,10-22.2,22.2v47.5C55,179.1,57.2,181.4,60,181.4
	L60,181.4z"/>
<path class="st3" d="M472,350H457V207c0-2.8-2.2-5-5-5s-5,2.2-5,5v143H336c-2.9,0-5.7,1.3-7.6,3.5L317,366.5H195l-11.4-13.1
	c-1.9-2.2-4.7-3.5-7.6-3.5H65V207c0-2.8-2.2-5-5-5s-5,2.2-5,5v143H40c-8.3,0-15,6.7-15,15v25.2c0,8.3,6.7,15,15,15h432
	c8.3,0,15-6.7,15-15v-25.2C487,356.7,480.3,349.9,472,350L472,350z M477,390.2c0,2.8-2.2,5-5,5H40c-2.8,0-5-2.2-5-5V365
	c0-2.8,2.2-5,5-5h136l12.9,14.9c0.9,1.1,2.3,1.7,3.8,1.7h126.7c1.5,0,2.8-0.6,3.8-1.7L336,360h136c2.8,0,5,2.2,5,5V390.2z"/>
<path class="st2" d="M423.8,331H88.2c-2.8,0-5-2.2-5-5V141.5c0-2.8,2.2-5,5-5h335.7c2.8,0,5,2.2,5,5V326
	C428.8,328.7,426.6,331,423.8,331z"/>
<g>
	<path class="st3" d="M423.8,336H88.2c-5.5,0-10-4.5-10-10V141.5c0-5.5,4.5-10,10-10h335.7c5.5,0,10,4.5,10,10V326
		C433.8,331.5,429.3,336,423.8,336z M88.2,141.5V326h335.7l0-184.4H88.2z"/>
</g>
<g>
	<path class="st3" d="M386.4,281h-27h-22.5h-0.7h-26.3h-0.7h-22.5h-21.6h-5.4h-21.6h-22.5h-27c-2.8,0-5,2.2-5,5s2.2,5,5,5h27h22.5
		h21.6h5.4h21.6h22.5h0.7h26.3h0.7h22.5h27c2.8,0,5-2.2,5-5S389.2,281,386.4,281z"/>
	<g>
		<g>
			<path class="st3" d="M132.3,307.8c-12,0-21.8-9.8-21.8-21.8c0-12,9.8-21.8,21.8-21.8c12,0,21.8,9.8,21.8,21.8
				C154.1,298,144.3,307.8,132.3,307.8z M132.3,272c-7.7,0-13.9,6.3-13.9,13.9s6.3,13.9,13.9,13.9s13.9-6.3,13.9-13.9
				C146.2,278.3,139.9,272,132.3,272z"/>
		</g>
		<path class="st1" d="M127.9,295.1C127.9,295.1,127.9,295.1,127.9,295.1c-1,0-2-0.4-2.8-1.2l-9-9c-1.5-1.5-1.5-4,0-5.6
			c1.5-1.5,4-1.5,5.6,0l6.2,6.2l31.4-31.4c1.5-1.5,4-1.5,5.6,0c1.5,1.5,1.5,4,0,5.6l-34.2,34.2C129.9,294.7,128.9,295.1,127.9,295.1
			L127.9,295.1z"/>
	</g>
</g>
<g>
	<path class="st3" d="M386.4,229h-27h-22.5h-0.7h-26.3h-0.7h-22.5h-21.6h-5.4h-21.6h-22.5h-27c-2.8,0-5,2.2-5,5s2.2,5,5,5h27h22.5
		h21.6h5.4h21.6h22.5h0.7h26.3h0.7h22.5h27c2.8,0,5-2.2,5-5S389.2,229,386.4,229z"/>
	<g>
		<g>
			<path class="st3" d="M132.3,255.8c-12,0-21.8-9.8-21.8-21.8c0-12,9.8-21.8,21.8-21.8c12,0,21.8,9.8,21.8,21.8
				C154.1,246,144.3,255.8,132.3,255.8z M132.3,220c-7.7,0-13.9,6.3-13.9,13.9s6.3,13.9,13.9,13.9s13.9-6.3,13.9-13.9
				C146.2,226.3,139.9,220,132.3,220z"/>
		</g>
		<path class="st1" d="M127.9,243.1C127.9,243.1,127.9,243.1,127.9,243.1c-1,0-2-0.4-2.8-1.2l-9-9c-1.5-1.5-1.5-4,0-5.6
			c1.5-1.5,4-1.5,5.6,0l6.2,6.2l31.4-31.4c1.5-1.5,4-1.5,5.6,0c1.5,1.5,1.5,4,0,5.6l-34.2,34.2C129.9,242.7,128.9,243.1,127.9,243.1
			L127.9,243.1z"/>
	</g>
</g>
<g>
	<path class="st3" d="M386.4,177h-27h-22.5h-0.7h-26.3h-0.7h-22.5h-21.6h-5.4h-21.6h-22.5h-27c-2.8,0-5,2.2-5,5s2.2,5,5,5h27h22.5
		h21.6h5.4h21.6h22.5h0.7h26.3h0.7h22.5h27c2.8,0,5-2.2,5-5S389.2,177,386.4,177z"/>
	<g>
		<g>
			<path class="st3" d="M132.3,203.8c-12,0-21.8-9.8-21.8-21.8c0-12,9.8-21.8,21.8-21.8c12,0,21.8,9.8,21.8,21.8
				C154.1,194,144.3,203.8,132.3,203.8z M132.3,168c-7.7,0-13.9,6.3-13.9,13.9s6.3,13.9,13.9,13.9s13.9-6.3,13.9-13.9
				C146.2,174.3,139.9,168,132.3,168z"/>
		</g>
		<path class="st1" d="M127.9,191.1C127.9,191.1,127.9,191.1,127.9,191.1c-1,0-2-0.4-2.8-1.2l-9-9c-1.5-1.5-1.5-4,0-5.6
			c1.5-1.5,4-1.5,5.6,0l6.2,6.2l31.4-31.4c1.5-1.5,4-1.5,5.6,0c1.5,1.5,1.5,4,0,5.6l-34.2,34.2C129.9,190.7,128.9,191.1,127.9,191.1
			L127.9,191.1z"/>
	</g>
</g>
</svg>
