<?xml version="1.0" encoding="utf-8"?>
<!-- Generator: Adobe Illustrator 24.0.2, SVG Export Plug-In . SVG Version: 6.00 Build 0)  -->
<svg version="1.1" id="Layer_1" xmlns:svgjs="http://svgjs.com/svgjs"
	 xmlns="http://www.w3.org/2000/svg" xmlns:xlink="http://www.w3.org/1999/xlink" x="0px" y="0px" viewBox="0 0 512 512"
	 style="enable-background:new 0 0 512 512;" xml:space="preserve">
<style type="text/css">
	.st0{fill:#FFFFFF;}
	.st1{opacity:0.1;fill:#38393A;enable-background:new    ;}
	.st2{fill:#00A2FF;}
	.st3{fill:#38393A;}
</style>
<g>
	<g>
		<path class="st0" d="M436.6,171.9c-8.4-8.4-18-14.9-28.7-19.8c-28-12.7-50.1-35.4-62.4-63.6C322.5,36.4,270.4,0,209.9,0
			C130.5-0.1,64.7,63.2,61.7,142.4c-1.3,33.9,8.9,65.4,26.9,91c22.9,32.4,28.8,73.8,17,111.7C88.8,399,94.7,450,126.6,481.9
			c55.9,55.9,170.6,31.8,256.2-53.8S492.4,227.8,436.6,171.9L436.6,171.9z"/>
		<path class="st1" d="M140.2,465.7c0,11.5,9.3,20.8,20.8,20.8h206.1c11.5,0,20.8-9.3,20.8-20.8V73.3c0-11.5-9.3-20.8-20.8-20.8
			h-206c-11.5,0-20.8,9.3-20.8,20.8v392.4H140.2z"/>
		<path class="st2" d="M388,46.3v392.3c0,11.5-9.3,20.8-20.8,20.8H161.1c-11.5,0-20.8-9.3-20.8-20.8V46.3c0-11.5,9.3-20.8,20.8-20.8
			h206.1C378.7,25.5,388,34.8,388,46.3L388,46.3z"/>
		<path class="st0" d="M140.2,146.4V425c0,19.1,9.3,34.5,20.8,34.5h206.1c11.5,0,20.8-15.4,20.8-34.5V146.4H140.2z"/>
		<path class="st0" d="M331.7,53.5l8.5-28h-152l8.5,28c1.3,4.2,5.2,7.1,9.6,7.1h115.9C326.5,60.6,330.4,57.7,331.7,53.5z"/>
		<path class="st3" d="M367.2,20.5H161.1c-14.2,0-25.8,11.6-25.8,25.8v301c0,2.8,2.2,5,5,5s5-2.2,5-5v-301c0-8.7,7.1-15.8,15.8-15.8
			h23.3l7.4,24.5c1.9,6.4,7.7,10.7,14.4,10.7h115.9c6.7,0,12.4-4.3,14.4-10.7l7.4-24.5h23.3c8.7,0,15.8,7.1,15.8,15.8v80.3
			c0,2.8,2.2,5,5,5s5-2.2,5-5V46.3C393,32.1,381.5,20.5,367.2,20.5L367.2,20.5z M326.9,52.1c-0.6,2.1-2.6,3.6-4.8,3.6H206.2
			c-2.2,0-4.1-1.4-4.8-3.6l-6.5-21.6h138.5L326.9,52.1z"/>
		<path class="st3" d="M388,155.7c-2.8,0-5,2.2-5,5v278c0,8.7-7.1,15.8-15.8,15.8H161.1c-8.7,0-15.8-7.1-15.8-15.8v-57.3
			c0-2.8-2.2-5-5-5s-5,2.2-5,5v57.3c0,14.2,11.6,25.8,25.8,25.8h206.1c14.2,0,25.8-11.6,25.8-25.8v-278
			C393,157.9,390.8,155.7,388,155.7L388,155.7z"/>
		<path class="st3" d="M215.3,43.1c0-2.7,2.2-4.9,4.9-4.9s4.9,2.2,4.9,4.9s-2.2,4.9-4.9,4.9C217.5,47.9,215.3,45.7,215.3,43.1z"/>
		<path class="st3" d="M231.6,43.1c0-2.7,2.2-4.9,4.9-4.9s4.9,2.2,4.9,4.9s-2.2,4.9-4.9,4.9C233.8,47.9,231.6,45.7,231.6,43.1z"/>
		<path class="st3" d="M304.7,47.9h-37.2c-2.6,0-4.7-2.1-4.7-4.7s2.1-4.7,4.7-4.7h37.2c2.6,0,4.7,2.1,4.7,4.7S307.3,47.9,304.7,47.9
			z"/>
		<g>
			<path class="st3" d="M288.6,138.4c-0.9,0-1.8-0.2-2.6-0.7c-6.6-4-14.1-6.1-21.8-6.1s-15.3,2.1-21.8,6.1c-2.4,1.4-5.4,0.7-6.9-1.7
				c-1.4-2.4-0.7-5.4,1.7-6.9c8.1-4.9,17.5-7.6,27-7.6s18.9,2.6,27,7.6c2.4,1.4,3.1,4.5,1.7,6.9
				C291.9,137.6,290.3,138.4,288.6,138.4z"/>
			<path class="st3" d="M274.5,154.7c-0.9,0-1.8-0.2-2.6-0.7c-4.7-2.9-10.9-2.9-15.6,0c-2.4,1.4-5.4,0.7-6.9-1.7
				c-1.4-2.4-0.7-5.4,1.7-6.9c3.9-2.4,8.4-3.6,13-3.6s9.1,1.3,13,3.6c2.4,1.4,3.1,4.5,1.7,6.9C277.9,153.8,276.2,154.7,274.5,154.7z
				"/>
			<path class="st3" d="M301.6,121.3c-0.9,0-1.8-0.2-2.6-0.7c-10.5-6.4-22.5-9.7-34.8-9.7c-12.3,0-24.3,3.4-34.8,9.7
				c-2.4,1.4-5.4,0.7-6.9-1.7c-1.4-2.4-0.7-5.4,1.7-6.9c12.1-7.3,25.9-11.2,40-11.2s28,3.9,40,11.2c2.4,1.4,3.1,4.5,1.7,6.9
				C304.9,120.5,303.3,121.3,301.6,121.3L301.6,121.3z"/>
			<path class="st3" d="M209.4,400.7h109.2c2.6,0,4.7,2.1,4.7,4.7s-2.1,4.7-4.7,4.7H209.4c-2.6,0-4.7-2.1-4.7-4.7
				S206.8,400.7,209.4,400.7z"/>
			<path class="st3" d="M228.4,382.8h71.3c2.6,0,4.7,2.1,4.7,4.7s-2.1,4.7-4.7,4.7h-71.3c-2.6,0-4.7-2.1-4.7-4.7
				S225.8,382.8,228.4,382.8L228.4,382.8z"/>
			<path class="st3" d="M323.3,159.9c-2.8,0-5-2.2-5-5v-3.5c0-2.8,2.2-5,5-5s5,2.2,5,5v3.5C328.3,157.6,326.1,159.9,323.3,159.9z"/>
			<path class="st3" d="M340.6,159.9c-2.8,0-5-2.2-5-5v-3.5c0-2.8,2.2-5,5-5s5,2.2,5,5v3.5C345.6,157.6,343.4,159.9,340.6,159.9z"/>
			<path class="st3" d="M187.7,159.9c-2.8,0-5-2.2-5-5v-3.5c0-2.8,2.2-5,5-5s5,2.2,5,5v3.5C192.7,157.6,190.4,159.9,187.7,159.9z"/>
			<path class="st3" d="M205,159.9c-2.8,0-5-2.2-5-5v-3.5c0-2.8,2.2-5,5-5s5,2.2,5,5v3.5C210,157.6,207.8,159.9,205,159.9z"/>
		</g>
		<path class="st0" d="M61.6,283.6c-1.3,0-2.6-0.5-3.5-1.5l-11.3-11.3c-2-2-2-5.1,0-7.1l11.3-11.3c0.9-0.9,2.2-1.5,3.5-1.5
			s2.6,0.5,3.5,1.5l11.3,11.3c0.9,0.9,1.5,2.2,1.5,3.5s-0.5,2.6-1.5,3.5L65.1,282C64.2,283.1,62.9,283.6,61.6,283.6L61.6,283.6z
			 M57.4,267.3l4.2,4.2l4.2-4.2l-4.2-4.2L57.4,267.3z"/>
		<path class="st0" d="M426.7,459.3c-1.3,0-2.6-0.5-3.5-1.5l-11.3-11.3c-2-2-2-5.1,0-7.1l11.3-11.3c2-2,5.1-2,7.1,0l11.3,11.3
			c2,2,2,5.1,0,7.1l-11.3,11.3C429.3,458.8,428,459.3,426.7,459.3z M422.5,443l4.2,4.2l4.2-4.2l-4.2-4.2L422.5,443z"/>
		<path class="st0" d="M426.7,122.2c-1.3,0-2.6-0.5-3.5-1.5l-11.3-11.3c-2-2-2-5.1,0-7.1L423.2,91c2-2,5.1-2,7.1,0l11.3,11.3
			c2,2,2,5.1,0,7.1l-11.3,11.3C429.3,121.7,428,122.2,426.7,122.2z M422.5,105.9l4.2,4.2l4.2-4.2l-4.2-4.2L422.5,105.9z"/>
		<path class="st0" d="M103.1,344c-7.2,0-13-5.8-13-13s5.8-13,13-13s13,5.8,13,13S110.3,344,103.1,344z M103.1,328c-1.7,0-3,1.4-3,3
			s1.4,3,3,3s3-1.4,3-3S104.8,328,103.1,328z"/>
		<path class="st2" d="M103.1,146.4c-7.2,0-13-5.8-13-13c0-7.2,5.8-13,13-13s13,5.8,13,13C116.1,140.6,110.3,146.4,103.1,146.4z
			 M103.1,130.4c-1.7,0-3,1.4-3,3s1.4,3,3,3s3-1.4,3-3S104.8,130.4,103.1,130.4z"/>
	</g>
	<path class="st2" d="M424.2,249c-7.2,0-13-5.8-13-13s5.8-13,13-13s13,5.8,13,13S431.4,249,424.2,249z M424.2,233c-1.7,0-3,1.4-3,3
		s1.4,3,3,3s3-1.4,3-3S425.9,233,424.2,233z"/>
</g>
<g>
	<g>
		<path class="st0" d="M358.2,100.8v84.9c0,5.5-4.5,10-10,10H177.3c-5.5,0-10-4.5-10-10v-84.9c0-5.5,4.5-10,10-10h170.9
			C353.8,90.8,358.2,95.3,358.2,100.8z"/>
		<path class="st2" d="M358.2,382.1v39.7H167.3v-39.7c0-5.5,4.5-10,10-10h170.9C353.8,372.1,358.2,376.6,358.2,382.1z"/>
		<path class="st2" d="M245.9,397c0,8.9-2.1,17.4-5.9,24.8h-72.6v-39.7c0-5.5,4.5-10,10-10h62.6C243.7,379.6,245.9,388,245.9,397z"
			/>
		<g>
			<g>
				<path class="st3" d="M251.1,269.1h-78.7c-2.8,0-5-2.2-5-5v-39.7c0-2.8,2.2-5,5-5h78.7c2.8,0,5,2.2,5,5v39.7
					C256.1,266.8,253.9,269.1,251.1,269.1z"/>
				<path class="st3" d="M353.2,269.1h-78.7c-2.8,0-5-2.2-5-5v-39.7c0-2.8,2.2-5,5-5h78.7c2.8,0,5,2.2,5,5v39.7
					C358.2,266.8,356,269.1,353.2,269.1z"/>
			</g>
			<g>
				<path class="st3" d="M251.1,330.5h-78.7c-2.8,0-5-2.2-5-5v-39.7c0-2.8,2.2-5,5-5h78.7c2.8,0,5,2.2,5,5v39.7
					C256.1,328.2,253.9,330.5,251.1,330.5z"/>
				<path class="st3" d="M353.2,330.5h-78.7c-2.8,0-5-2.2-5-5v-39.7c0-2.8,2.2-5,5-5h78.7c2.8,0,5,2.2,5,5v39.7
					C358.2,328.2,356,330.5,353.2,330.5z"/>
			</g>
		</g>
		<g>
			<g>
				<path class="st3" d="M258.5,149.5h-65.7c-2.8,0-5,2.2-5,5s2.2,5,5,5h65.7c2.8,0,5-2.2,5-5S261.2,149.5,258.5,149.5z"/>
			</g>
			<g>
				<path class="st3" d="M258.5,130.1h-65.7c-2.8,0-5,2.2-5,5s2.2,5,5,5h65.7c2.8,0,5-2.2,5-5S261.2,130.1,258.5,130.1z"/>
			</g>
			<g>
				<path class="st3" d="M204.5,106.7h-11.7c-2.8,0-5,2.2-5,5s2.2,5,5,5h11.7c2.8,0,5-2.2,5-5S207.2,106.7,204.5,106.7z"/>
			</g>
		</g>
		<g>
			<path class="st3" d="M214,351.7h-41.7c-2.8,0-5,2.2-5,5s2.2,5,5,5H214c2.8,0,5-2.2,5-5S216.8,351.7,214,351.7z"/>
		</g>
		<path class="st2" d="M358.2,382.1v24.6c-19,0-34.3-15.4-34.3-34.3v-0.3h24.3C353.8,372.1,358.2,376.6,358.2,382.1z"/>
	</g>
	<g>
		<path class="st3" d="M348.2,200.7H177.3c-8.3,0-15-6.7-15-15v-84.9c0-8.3,6.7-15,15-15h170.9c8.3,0,15,6.7,15,15v84.9
			C363.2,194,356.5,200.7,348.2,200.7z M177.3,95.8c-2.8,0-5,2.2-5,5v84.9c0,2.8,2.2,5,5,5h170.9c2.8,0,5-2.2,5-5v-84.9
			c0-2.8-2.2-5-5-5H177.3z"/>
		<path class="st3" d="M363.2,426.8H162.3v-44.7c0-8.3,6.7-15,15-15h170.9c8.3,0,15,6.7,15,15V426.8z M172.3,416.8h180.9v-34.7
			c0-2.8-2.2-5-5-5H177.3c-2.8,0-5,2.2-5,5V416.8z"/>
	</g>
</g>
<g>
	<circle class="st0" cx="309.4" cy="144.4" r="33.7"/>
	<g>
		<path class="st2" d="M309.4,183c-21.3,0-38.7-17.3-38.7-38.7s17.3-38.7,38.7-38.7s38.7,17.3,38.7,38.7S330.7,183,309.4,183z
			 M309.4,115.7c-15.8,0-28.7,12.9-28.7,28.7c0,15.8,12.9,28.7,28.7,28.7c15.8,0,28.7-12.9,28.7-28.7S325.2,115.7,309.4,115.7z"/>
	</g>
	<path class="st2" d="M326,145.5c0-9.2-7.5-16.6-16.6-16.6s-16.6,7.4-16.6,16.6c0,4.5,1.8,8.6,4.8,11.6c-2.9,3-4.8,7.1-4.8,11.6v4.9
		c3.1,1.7,6.4,3,10,3.7v-8.6c0-3.6,3-6.6,6.6-6.6c3.6,0,6.6,3,6.6,6.6v8.6c3.6-0.7,6.9-2,10-3.7v-4.9c0-4.5-1.8-8.6-4.8-11.6
		C324.2,154.1,326,150,326,145.5z M309.4,152.1c-3.6,0-6.6-3-6.6-6.6c0-3.6,3-6.6,6.6-6.6c3.6,0,6.6,3,6.6,6.6
		C316,149.2,313,152.1,309.4,152.1z"/>
</g>
</svg>
