<svg id="Layer_1" data-name="Layer 1" xmlns="http://www.w3.org/2000/svg" viewBox="0 0 1098 250"><defs><style>.cls-1{fill:#37b34a;}.cls-2{fill:#26a9e0;}</style></defs><circle class="cls-1" cx="82.27" cy="188.3" r="25.1"/><path class="cls-2" d="M76,149.64a6.05,6.05,0,0,0,6.05-6V18.69a6.58,6.58,0,1,1,13.16,0v124.9a6.06,6.06,0,0,0,12.11,0V37.51a6.58,6.58,0,0,1,13.16,0V143.59a6.06,6.06,0,0,0,12.11,0V37.51a18.71,18.71,0,0,0-18.69-18.69,18.47,18.47,0,0,0-6.58,1.2V18.69a18.69,18.69,0,1,0-37.38,0v124.9A6.05,6.05,0,0,0,76,149.64Z"/><path class="cls-2" d="M170.72,89.66a18.6,18.6,0,0,0-12.63,4.93,18.63,18.63,0,0,0-12.64-4.93,6.06,6.06,0,0,0,0,12.11,6.59,6.59,0,0,1,6.58,6.58v59.78A69.74,69.74,0,0,1,20.7,200.88c-1,.05-1.93.08-2.9.08H7.23A81.9,81.9,0,0,0,140.16,226a81.3,81.3,0,0,0,24-57.89V108.35a6.59,6.59,0,0,1,6.58-6.58,6.06,6.06,0,1,0,0-12.11Z"/><path class="cls-2" d="M17.8,188.85a45.37,45.37,0,0,0,21.57-5.46c.64-.35,1.28-.71,1.9-1.09l.93-.58c.61-.39,1.22-.8,1.8-1.22.88-.63,1.75-1.29,2.59-2,.56-.46,1.11-.93,1.64-1.41s1.06-1,1.57-1.5,1-1,1.5-1.57,1-1.09,1.42-1.65.91-1.13,1.34-1.7a44.93,44.93,0,0,0,7.59-15.91,12,12,0,0,1-4.65.93,12.73,12.73,0,0,1-1.86-.14,12.08,12.08,0,0,1-5.58-2.43,33,33,0,0,1-2.23,5.55,34.16,34.16,0,0,1-3,4.74q-.48.65-1,1.26c-.34.41-.69.81-1,1.2s-.73.78-1.1,1.15-.77.75-1.15,1.1-.8.71-1.21,1c-.61.51-1.25,1-1.9,1.46q-.65.47-1.32.9L35,172c-.45.27-.92.54-1.39.8a33.2,33.2,0,0,1-15.79,4H13.05a70.7,70.7,0,0,1-.53-8.61V121a19.26,19.26,0,0,1,13.16-18.24v40.84a6.06,6.06,0,0,0,12.11,0V37.51c0-.12,0-.23,0-.35a5.26,5.26,0,0,1,.07-.67,4.7,4.7,0,0,1,.13-.63,6.58,6.58,0,0,1,9.78-4,6.66,6.66,0,0,1,1.86,1.69,6.39,6.39,0,0,1,1.1,2.29,4.53,4.53,0,0,1,.13.64,4.76,4.76,0,0,1,.07.66c0,.12,0,.23,0,.35V55.22a12.06,12.06,0,0,1,12.11,0V37.51c0-.32,0-.64,0-1h0c0-.63-.1-1.26-.2-1.88A18.69,18.69,0,0,0,34.67,21.53a18.63,18.63,0,0,0-8.4,11.31c-.16.61-.28,1.22-.38,1.83s-.16,1.26-.19,1.87c0,.32,0,.65,0,1V90.25A31.37,31.37,0,0,0,.41,121v47.14A82.38,82.38,0,0,0,1.94,184a6.06,6.06,0,0,0,5.95,4.89Z"/><path class="cls-2" d="M51,140.88a6.05,6.05,0,0,0,5.59,6l.46,0a6.05,6.05,0,0,0,6.06-6.05V98.43a6.06,6.06,0,1,0-12.11,0Z"/><path class="cls-2" d="M57,87.11a6.06,6.06,0,0,0,6.06-6.06V68.42a6.06,6.06,0,1,0-12.11,0V81.05A6.05,6.05,0,0,0,57,87.11Z"/><path class="cls-2" d="M357.07,58.86V179.6H332.82V169.51q-9.44,11.38-27.33,11.39a45.45,45.45,0,0,1-22.38-5.54,39.6,39.6,0,0,1-15.7-15.78q-5.7-10.25-5.7-23.76t5.7-23.75a39.63,39.63,0,0,1,15.7-15.79,45.55,45.55,0,0,1,22.38-5.53q16.75,0,26.19,10.58V58.86Zm-31.24,94.62q6.35-6.58,6.34-17.66t-6.34-17.65a22.79,22.79,0,0,0-32.06,0q-6.34,6.58-6.35,17.65t6.35,17.66a22.79,22.79,0,0,0,32.06,0Z"/><path class="cls-2" d="M381.8,75.78a13.79,13.79,0,0,1,0-20.18q4.4-4.07,11.39-4.06t11.39,3.9A12.51,12.51,0,0,1,409,65.2a13.83,13.83,0,0,1-4.39,10.5,15.91,15.91,0,0,1-11.39,4.15A16.1,16.1,0,0,1,381.8,75.78Zm-1.3,16.27h25.38V179.6H380.5Z"/><path class="cls-2" d="M567.7,100.43q9.69,9.69,9.69,29V179.6H552V133.38q0-10.41-4.31-15.54t-12.29-5.12q-8.94,0-14.15,5.77T516,135.66V179.6H490.66V133.38q0-20.65-16.6-20.66-8.79,0-14,5.77t-5.21,17.17V179.6H429.47V92.05h24.25v10.09a31.94,31.94,0,0,1,12-8.46,40.31,40.31,0,0,1,15.54-2.93A37.66,37.66,0,0,1,498,94.41a29.73,29.73,0,0,1,12,10.66,35.93,35.93,0,0,1,13.59-10.58,42.91,42.91,0,0,1,18-3.74Q558,90.75,567.7,100.43Z"/><path class="cls-2" d="M685.43,92.05,645.89,185q-6,15.14-14.89,21.32t-21.4,6.18a44.45,44.45,0,0,1-13.5-2.11,29.71,29.71,0,0,1-10.9-5.86l9.27-18.06a21.93,21.93,0,0,0,6.75,4.07,21.18,21.18,0,0,0,7.57,1.46,13.43,13.43,0,0,0,8.46-2.52q3.25-2.52,5.86-8.38l.33-.81-37.92-88.2h26.2l24.57,59.39L661,92.05Z"/><path class="cls-2" d="M798.36,175.36a26,26,0,0,1-9.2,4.15,46.56,46.56,0,0,1-11.47,1.39q-15.62,0-24.16-8T745,149.49v-36h-13.5V94H745V72.69h25.39V94h21.8v19.52h-21.8v35.64c0,3.69,1,6.53,2.85,8.54s4.58,3,8,3a16.31,16.31,0,0,0,10.25-3.25Z"/><path class="cls-2" d="M895.17,143H829a20.61,20.61,0,0,0,8.46,12.86q6.66,4.72,16.59,4.72a33.56,33.56,0,0,0,12.13-2A29.45,29.45,0,0,0,876,152.1l13.51,14.64q-12.37,14.16-36.13,14.16-14.8,0-26.19-5.78a42.27,42.27,0,0,1-17.58-16,44.17,44.17,0,0,1-6.18-23.27,44.72,44.72,0,0,1,6.1-23.18,42.72,42.72,0,0,1,16.76-16.11,51.89,51.89,0,0,1,47.11-.25,40.41,40.41,0,0,1,16.35,15.87q5.94,10.34,5.94,24C895.66,136.48,895.5,138.75,895.17,143Zm-59.39-28.15a20.85,20.85,0,0,0-7.16,13.35h43.12a21,21,0,0,0-7.16-13.27,21.44,21.44,0,0,0-14.32-5A21.89,21.89,0,0,0,835.78,114.83Z"/><path class="cls-2" d="M929.75,175.12a43.18,43.18,0,0,1-17.41-16,43.68,43.68,0,0,1-6.27-23.27,43.73,43.73,0,0,1,6.27-23.27,43.22,43.22,0,0,1,17.41-16,53.83,53.83,0,0,1,25.14-5.78q13.83,0,24.16,5.78A34.2,34.2,0,0,1,994.1,113l-19.68,10.58q-6.84-12-19.69-12a22.28,22.28,0,0,0-16.44,6.51q-6.51,6.51-6.51,17.73t6.51,17.74a22.28,22.28,0,0,0,16.44,6.51q13,0,19.69-12l19.68,10.74A34.94,34.94,0,0,1,979.05,175q-10.34,5.85-24.16,5.86A53.83,53.83,0,0,1,929.75,175.12Z"/><path class="cls-2" d="M1087.58,100.51q10,9.76,10,29V179.6h-25.38V133.38q0-10.41-4.56-15.54t-13.18-5.12q-9.6,0-15.29,5.94t-5.7,17.65V179.6H1008.1V58.86h25.38v42.3a33.77,33.77,0,0,1,12.2-7.72,44.19,44.19,0,0,1,15.63-2.69Q1077.57,90.75,1087.58,100.51Z"/></svg>