<?xml version="1.0" encoding="utf-8"?>
<!-- Generator: Adobe Illustrator 24.0.2, SVG Export Plug-In . SVG Version: 6.00 Build 0)  -->
<svg version="1.1" id="Layer_1" xmlns:svgjs="http://svgjs.com/svgjs"
	 xmlns="http://www.w3.org/2000/svg" xmlns:xlink="http://www.w3.org/1999/xlink" x="0px" y="0px" viewBox="0 0 512 512"
	 style="enable-background:new 0 0 512 512;" xml:space="preserve">
<style type="text/css">
	.st0{fill:#FFFFFF;}
	.st1{opacity:0.1;fill:#38393A;enable-background:new    ;}
	.st2{fill:#00A2FF;}
	.st3{fill:#38393A;}
</style>
<g>
	<g>
		<path class="st0" d="M408.2,154.3c-23.7-9.2-43.7-26.1-56-48.4C331.7,68.4,291.8,43,246,43c-47.5,0-88.6,27.4-108.5,67.2
			c-12.1,24.4-32.8,43.6-58.1,53.8C42.1,179,10.8,213.5,0.8,267.3c-1.1,5.9-1.1,12,0,17.9c15.4,83.6,82.4,120.4,143.3,110.7
			c34.1-5.5,68.7,5.9,94,29.5c51.4,47.9,133.9,62.9,213.9,11.6c9.4-6,22-18.6,28-28C549,301.2,497.9,189.2,408.2,154.3z"/>
		<path class="st1" d="M450.5,102.2h-81.4v-38c0-9.9-8.1-18-18-18H147.9c-9.9,0-18,8.1-18,18v58.2H46c-4.1,0-7.5,3.4-7.5,7.6v70.9
			c0,4.2,3.3,7.6,7.5,7.6h84v39.8H46c-4.1,0-7.5,3.4-7.5,7.6v131.3c0,4.2,3.3,7.6,7.5,7.6h84v33.9c0,9.9,8.1,18,18,18h203.1
			c9.9,0,18-8.1,18-18v-88.4h36.8c5.5,0,10-4.5,10-10.1V282c0-5.6-4.5-10.1-10-10.1h-36.8v-51.7h81.4c5.5,0,10-4.5,10-10v-98
			C460.5,106.7,456,102.2,450.5,102.2L450.5,102.2z"/>
		<path class="st0" d="M369.1,85.2v364.4c0,9.9-8.1,18-18,18H147.9c-9.9,0-18-8.1-18-18V85.2c0-9.9,8.1-18,18-18h203.1
			C361,67.2,369.1,75.2,369.1,85.2z"/>
		<path class="st2" d="M369.1,170.8V85.2c0-10-8-18.1-17.9-18.1H147.8c-9.9,0-17.9,8.1-17.9,18.1v85.5H369.1z"/>
		<path class="st0" d="M320.8,92l8-24.8H170.2l8,24.8c1.2,3.6,4.5,6,8.2,6h126.1C316.3,98,319.6,95.6,320.8,92z"/>
		<g>
			<path class="st3" d="M312.6,103H186.4c-5.9,0-11.1-3.8-13-9.5l-8-24.8c-0.8-2.6,0.6-5.4,3.2-6.3c2.6-0.8,5.4,0.6,6.3,3.2l8,24.8
				c0.5,1.5,1.9,2.6,3.4,2.6h126.1c1.6,0,3-1,3.4-2.6l8-24.8c0.8-2.6,3.7-4.1,6.3-3.2c2.6,0.8,4.1,3.7,3.2,6.3l-8,24.8
				C323.7,99.2,318.5,103,312.6,103z"/>
			<path class="st3" d="M351.1,472.6H147.9c-12.7,0-23-10.3-23-23v-31.3c0-2.8,2.2-5,5-5s5,2.2,5,5v31.3c0,7.2,5.8,13,13,13h203.1
				c7.2,0,13-5.8,13-13v-86.9c0-2.8,2.2-5,5-5s5,2.2,5,5v86.9C374.1,462.3,363.8,472.6,351.1,472.6z"/>
			<path class="st3" d="M369.1,296.3c-2.8,0-5-2.2-5-5v-48c0-2.8,2.2-5,5-5s5,2.2,5,5v48C374.1,294.1,371.8,296.3,369.1,296.3z"/>
			<path class="st3" d="M130,145.4c-2.8,0-5-2.2-5-5V85.2c0-12.7,10.3-23,23-23h203.1c12.7,0,23,10.3,23,23V121c0,2.8-2.2,5-5,5
				s-5-2.2-5-5V85.2c0-7.2-5.8-13-13-13H147.9c-7.2,0-13,5.8-13,13v55.2C135,143.1,132.7,145.4,130,145.4L130,145.4z"/>
			<path class="st3" d="M130,274.3c-2.8,0-5-2.2-5-5v-37c0-2.8,2.2-5,5-5s5,2.2,5,5v37C135,272.1,132.7,274.3,130,274.3z"/>
		</g>
		<ellipse class="st2" cx="249.5" cy="242.1" rx="44.8" ry="45.3"/>
		<path class="st3" d="M261.9,248.7c3.4-3.3,5.6-7.9,5.6-13.1c0-10-8.1-18.1-18-18.1c-9.9,0-18,8.1-18,18.1c0,5.2,2.2,9.8,5.6,13.1
			c-3.4,3.3-5.6,7.9-5.6,13.1c0,2.8,2.2,5,5,5s5-2.2,5-5c0-4.5,3.6-8.1,8-8.1s8,3.6,8,8.1c0,2.8,2.2,5,5,5s5-2.2,5-5
			C267.5,256.6,265.3,252,261.9,248.7L261.9,248.7z M241.6,235.6c0-4.5,3.6-8.1,8-8.1s8,3.6,8,8.1s-3.6,8.1-8,8.1
			S241.6,240,241.6,235.6z"/>
		<path class="st3" d="M282.6,326.4h-66.3c-2.8,0-5.1-2.3-5.1-5.2s2.3-5.2,5.1-5.2h66.3c2.8,0,5.1,2.3,5.1,5.2
			S285.5,326.4,282.6,326.4z"/>
		<path class="st3" d="M264.7,345.5h-30.4c-2.8,0-5.1-2.3-5.1-5.2s2.3-5.2,5.1-5.2h30.4c2.8,0,5.1,2.3,5.1,5.2
			C269.8,343.2,267.5,345.5,264.7,345.5z"/>
		<ellipse class="st3" cx="266.3" cy="403" rx="5.6" ry="5.6"/>
		<path class="st3" d="M249.5,397.3c3.1,0,5.6,2.5,5.6,5.6s-2.5,5.6-5.6,5.6s-5.6-2.5-5.6-5.6S246.4,397.3,249.5,397.3z"/>
		<ellipse class="st3" cx="232.7" cy="403" rx="5.6" ry="5.6"/>
		<path class="st0" d="M405.8,361.2H350c-5.5,0-10-4.5-10-10.1V303c0-5.6,4.5-10.1,10-10.1h55.9c5.5,0,10,4.5,10,10.1v48.1
			C415.8,356.7,411.3,361.2,405.8,361.2z"/>
		<path class="st3" d="M405.8,366.2H350c-8.2,0-15-6.8-15-15.1V303c0-8.3,6.7-15.1,15-15.1h55.9c8.2,0,15,6.8,15,15.1v48.1
			C420.8,359.4,414.1,366.2,405.8,366.2L405.8,366.2z M350,297.9c-2.7,0-5,2.3-5,5.1v48.1c0,2.8,2.2,5.1,5,5.1h55.9
			c2.7,0,5-2.3,5-5.1V303c0-2.8-2.2-5.1-5-5.1L350,297.9z"/>
		<path class="st3" d="M371.1,344.2c-0.8,0-1.7-0.2-2.4-0.7c-2.4-1.4-3.2-4.4-1.9-6.9l13.5-24.2c1.4-2.4,4.4-3.3,6.8-1.9
			c2.4,1.4,3.2,4.4,1.9,6.9l-13.5,24.2C374.6,343.3,372.9,344.2,371.1,344.2z"/>
		<path class="st0" d="M153.8,229.5H46c-4.1,0-7.5-3.4-7.5-7.6V151c0-4.2,3.3-7.6,7.5-7.6h107.8c4.1,0,7.5,3.4,7.5,7.6v70.9
			C161.3,226.1,157.9,229.5,153.8,229.5z"/>
		<path class="st3" d="M153.8,234.5H46c-6.9,0-12.5-5.6-12.5-12.6V151c0-6.9,5.6-12.6,12.5-12.6h107.8c6.9,0,12.5,5.6,12.5,12.6
			v70.9C166.3,228.8,160.7,234.5,153.8,234.5z M46,148.4c-1.4,0-2.5,1.1-2.5,2.6v70.9c0,1.4,1.1,2.6,2.5,2.6h107.8
			c1.4,0,2.5-1.1,2.5-2.6v-70.9c0-1.4-1.1-2.6-2.5-2.6H46z"/>
		<path class="st3" d="M76.6,203.6c-1.3,0-2.5-0.5-3.5-1.5l-12-12.1c-1.9-2-1.9-5.1,0-7.1l12-12.1c1.9-2,5.1-2,7,0
			c1.9,2,1.9,5.1,0,7.1l-8.5,8.5l8.5,8.5c1.9,2,1.9,5.1,0,7.1C79.2,203.1,77.9,203.6,76.6,203.6L76.6,203.6z"/>
		<path class="st3" d="M123.1,169.3c1.3,0,2.5,0.5,3.5,1.5l12,12.1c1.9,2,1.9,5.1,0,7.1l-12,12.1c-1.9,2-5.1,2-7,0
			c-1.9-2-1.9-5.1,0-7.1l8.5-8.5l-8.5-8.5c-1.9-2-1.9-5.1,0-7.1C120.6,169.8,121.9,169.3,123.1,169.3L123.1,169.3z"/>
		<path class="st3" d="M93.1,203.6c-0.8,0-1.7-0.2-2.4-0.7c-2.4-1.4-3.2-4.4-1.9-6.9l13.5-24.2c1.3-2.4,4.4-3.3,6.8-1.9
			c2.4,1.4,3.2,4.4,1.9,6.9L97.5,201C96.5,202.6,94.9,203.6,93.1,203.6z"/>
		<path class="st0" d="M153.8,415.7H46c-4.1,0-7.5-3.4-7.5-7.6V276.9c0-4.2,3.3-7.6,7.5-7.6h107.8c4.1,0,7.5,3.4,7.5,7.6v131.3
			C161.3,412.3,157.9,415.7,153.8,415.7z"/>
		<path class="st3" d="M153.8,420.7H46c-6.9,0-12.5-5.6-12.5-12.6V276.9c0-6.9,5.6-12.6,12.5-12.6h56.6c2.8,0,5,2.2,5,5s-2.2,5-5,5
			H46c-1.4,0-2.5,1.1-2.5,2.6v131.3c0,1.4,1.1,2.6,2.5,2.6h107.8c1.4,0,2.5-1.1,2.5-2.6V276.9c0-1.4-1.1-2.6-2.5-2.6H130
			c-2.8,0-5-2.2-5-5s2.2-5,5-5h23.8c6.9,0,12.5,5.6,12.5,12.6v131.3C166.3,415.1,160.7,420.7,153.8,420.7z"/>
		<path class="st0" d="M450.5,241.2H328.8c-5.5,0-10-4.5-10-10v-98c0-5.5,4.5-10,10-10h121.6c5.5,0,10,4.5,10,10v98
			C460.5,236.7,456,241.2,450.5,241.2z"/>
		<path class="st0" d="M450.5,123.2h-34v118h34c5.5,0,10-4.5,10-10.1v-97.9C460.5,127.7,456.1,123.2,450.5,123.2L450.5,123.2z"/>
		<path class="st0" d="M460.5,156.1v-22.9c0-5.6-4.5-10.1-10-10.1H328.8c-5.5,0-10,4.5-10,10.1v22.9H460.5z"/>
		<g>
			<path class="st3" d="M450.5,246.2H328.8c-8.3,0-15-6.8-15-15.1v-97.9c0-8.3,6.7-15.1,15-15.1h121.7c8.3,0,15,6.8,15,15.1v22.9
				c0,2.8-2.2,5-5,5s-5-2.2-5-5v-22.9c0-2.8-2.2-5.1-5-5.1H328.8c-2.7,0-5,2.3-5,5.1v97.9c0,2.8,2.2,5.1,5,5.1h121.7
				c2.7,0,5-2.3,5-5.1v-47.3c0-2.8,2.2-5,5-5s5,2.2,5,5v47.3C465.5,239.5,458.8,246.2,450.5,246.2L450.5,246.2z"/>
			<path class="st3" d="M460.5,161.1H318.8c-2.8,0-5-2.2-5-5s2.2-5,5-5h141.7c2.8,0,5,2.2,5,5S463.3,161.1,460.5,161.1z"/>
			<path class="st3" d="M396.5,217.7H347c-2.8,0-5-2.3-5-5s2.2-5,5-5h49.5c2.8,0,5,2.3,5,5S399.2,217.7,396.5,217.7z"/>
			<path class="st3" d="M369.6,196.7H347c-2.8,0-5-2.3-5-5s2.2-5,5-5h22.5c2.8,0,5,2.3,5,5S372.3,196.7,369.6,196.7z"/>
			<path class="st3" d="M129,344.8H70.7c-2.8,0-5-2.3-5-5s2.2-5,5-5H129c2.8,0,5,2.3,5,5S131.8,344.8,129,344.8z"/>
			<path class="st3" d="M117.1,317.9H82.7c-2.8,0-5-2.3-5-5s2.2-5,5-5h34.4c2.8,0,5,2.3,5,5S119.9,317.9,117.1,317.9z"/>
			<path class="st3" d="M129,362.7H70.7c-2.8,0-5-2.3-5-5s2.2-5,5-5H129c2.8,0,5,2.3,5,5C134,360.5,131.8,362.7,129,362.7z"/>
			<path class="st3" d="M129,380.6H70.7c-2.8,0-5-2.3-5-5s2.2-5,5-5H129c2.8,0,5,2.3,5,5S131.8,380.6,129,380.6z"/>
		</g>
		<path class="st2" d="M462.5,386.6c-1.3,0-2.6-0.5-3.6-1.5l-11-11.1c-1.9-1.9-1.9-5.1,0-7l11-11.1c0.9-0.9,2.2-1.5,3.6-1.5
			s2.6,0.5,3.6,1.5l11,11.1c1.9,1.9,1.9,5.1,0,7l-11,11.1C465.1,386.1,463.9,386.6,462.5,386.6z M458.6,370.5l3.9,4l3.9-4l-3.9-4
			L458.6,370.5z"/>
		<path class="st2" d="M412.2,414.8c-1.3,0-2.6-0.5-3.6-1.5l-11-11.1c-1.9-1.9-1.9-5.1,0-7l11-11.1c0.9-0.9,2.2-1.5,3.6-1.5
			c1.3,0,2.6,0.5,3.6,1.5l11,11.1c1.9,1.9,1.9,5.1,0,7l-11,11.1C414.8,414.3,413.5,414.8,412.2,414.8z M408.2,398.7l3.9,4l3.9-4
			l-3.9-4L408.2,398.7z"/>
		<path class="st0" d="M89.3,122.6c-2.8,0-5-2.2-5-5c0-3.3-2.7-6.1-5.9-6.1c-2.8,0-5-2.2-5-5s2.2-5,5-5c3.3,0,5.9-2.7,5.9-6.1
			c0-2.8,2.2-5,5-5s5,2.2,5,5c0,3.3,2.7,6.1,5.9,6.1c2.8,0,5,2.2,5,5s-2.2,5-5,5c-3.3,0-5.9,2.7-5.9,6.1
			C94.3,120.4,92.1,122.6,89.3,122.6z"/>
		<path class="st0" d="M107.6,71.6c-2.8,0-5-2.2-5-5c0-3.3-2.7-6.1-5.9-6.1c-2.8,0-5-2.2-5-5s2.2-5,5-5c3.3,0,5.9-2.7,5.9-6.1
			c0-2.8,2.2-5,5-5s5,2.2,5,5c0,3.3,2.7,6.1,5.9,6.1c2.8,0,5,2.2,5,5s-2.2,5-5,5c-3.3,0-5.9,2.7-5.9,6.1
			C112.6,69.3,110.3,71.6,107.6,71.6z"/>
	</g>
</g>
</svg>
