<?xml version="1.0" encoding="utf-8"?>
<!-- Generator: Adobe Illustrator 24.3.0, SVG Export Plug-In . SVG Version: 6.00 Build 0)  -->
<svg version="1.1" id="Layer_1" xmlns="http://www.w3.org/2000/svg" xmlns:xlink="http://www.w3.org/1999/xlink" x="0px" y="0px"
	 viewBox="0 0 300 300" style="enable-background:new 0 0 300 300;" xml:space="preserve">
<style type="text/css">
	.st0{fill:#005C87;}
	.st1{fill:#E3820F;}
	.st2{fill-rule:evenodd;clip-rule:evenodd;fill:#E3820F;}
</style>
<g>
	<path id="Path_2" class="st0" d="M0,205.3h9.9v-39.2l15.5,34.2c1.8,4.1,4.3,5.6,9.1,5.6s7.2-1.5,9.1-5.6L59,166.1v39.2h10v-39.2
		c0-3.8-1.5-5.6-4.7-6.6c-7.5-2.3-12.6-0.3-14.9,4.8l-15.2,33.8l-14.6-33.8c-2.2-5.1-7.3-7.1-14.9-4.8c-3.1,1-4.7,2.8-4.7,6.6V205.3
		z M77.2,173.4h10V195c-0.1,1.2,0.4,4,5.8,4c2.8,0.1,21.5,0,21.6,0v-25.7h10c0,0,0,35.1,0,35.3c0,8.7-10.7,10.6-15.8,10.7H77.4v-6.6
		c0.1,0,31.4,0,31.5,0c6.4-0.7,5.6-3.9,5.6-5V205H93.4c-9.8-0.1-16.1-4.4-16.2-9.4C77.2,195.2,77.4,173.6,77.2,173.4z M291.2,148.4
		c-6.1-0.1-10.8,0.5-14.8,2.1c-1.1,0.5-3,0.5-3.1,1.9c0.6,0.6,0.7,1.6,1.2,2.4c0.9,1.5,2.5,3.6,4,4.7c1.6,1.2,3.2,2.4,4.9,3.5
		c3,1.8,6.3,2.9,9.2,4.7c1.7,1.1,3.3,2.4,5,3.6c0.8,0.6,1.4,1.6,2.4,2c0-0.1,0-0.2,0-0.2c-0.5-0.7-0.7-1.7-1.2-2.4
		c-0.8-0.8-1.5-1.5-2.3-2.2c-2.2-3-5-5.6-7.9-7.7c-2.4-1.7-7.8-4-8.8-6.8c0,0-0.1-0.1-0.2-0.2c1.7-0.2,3.7-0.8,5.3-1.2
		c2.6-0.7,5-0.5,7.6-1.2c1.2-0.3,2.4-0.7,3.7-1.1c0-0.2,0-0.5,0-0.7c-1.4-1.4-2.4-3.2-3.8-4.5c-3.9-3.3-8.2-6.6-12.6-9.4
		c-2.4-1.5-5.4-2.5-7.9-3.8c-0.9-0.5-2.4-0.7-3-1.4c-1.4-1.7-2.1-3.9-3.1-5.9c-2.2-4.2-4.3-8.8-6.2-13.3c-1.4-3-2.2-5.9-3.9-8.7
		c-7.8-13-16.4-20.8-29.5-28.5c-2.8-1.6-6.2-2.3-9.7-3.1c-1.9-0.1-3.8-0.2-5.7-0.3c-1.2-0.5-2.4-2-3.5-2.7
		c-4.3-2.7-15.5-8.7-18.7-0.8c-2,5,3,9.8,4.8,12.3c1.3,1.7,3,3.7,3.9,5.7c0.5,1.3,0.7,2.7,1.2,4c1.2,3.4,2.4,7.1,4,10.2
		c0.8,1.6,1.8,3.3,2.8,4.7c0.6,0.8,1.7,1.2,1.9,2.6c-1.1,1.5-1.1,3.8-1.8,5.7c-2.7,8.6-1.7,19.3,2.2,25.6c1.2,1.9,4.1,6.1,8,4.5
		c3.4-1.4,2.7-5.7,3.7-9.5c0.2-0.9,0.1-1.5,0.5-2.1c0,0.1,0,0.2,0,0.2c1.1,2.1,2.1,4.2,3.1,6.3c2.4,3.7,6.5,7.6,9.9,10.2
		c1.8,1.4,3.3,3.7,5.6,4.6c0-0.1,0-0.2,0-0.2c-0.1,0-0.1,0-0.2,0c-0.5-0.7-1.1-1-1.7-1.5c-1.4-1.4-2.9-3-4-4.6
		c-3.2-4.3-6-9-8.5-13.9c-1.2-2.4-2.3-5-3.3-7.3c-0.5-0.9-0.5-2.3-1.2-2.7c-1.2,1.7-2.8,3.1-3.7,5.2c-1.5,3.3-1.6,7.3-2.1,11.5
		c-0.3,0.1-0.1,0-0.3,0.1c-2.4-0.6-3.3-3.1-4.2-5.3c-2.3-5.4-2.7-14.1-0.7-20.3c0.5-1.6,2.8-6.6,1.9-8.1c-0.5-1.5-2-2.3-2.8-3.4
		c-1-1.5-2.1-3.3-2.7-4.9c-1.8-4.3-2.7-9-4.7-13.2c-0.9-2-2.5-4-3.8-5.9c-1.4-2.1-3-3.5-4.2-5.9c-0.4-0.8-0.9-2.2-0.3-3.1
		c0.2-0.6,0.5-0.8,1.1-1c1-0.8,3.8,0.2,4.8,0.7c2.8,1.1,5.2,2.2,7.5,3.8c1.1,0.8,2.2,2.2,3.6,2.6c0.5,0,1.1,0,1.6,0
		c2.4,0.5,5.2,0.2,7.5,0.8c4,1.3,7.7,3.2,11,5.3c10,6.3,18.2,15.3,23.8,26c0.9,1.8,1.3,3.4,2.1,5.2c1.6,3.7,3.6,7.5,5.2,11.2
		c1.6,3.6,3.1,7.2,5.4,10.2c1.1,1.6,5.7,2.4,7.8,3.3c1.5,0.7,3.9,1.3,5.2,2.1c2.6,1.6,5.2,3.4,7.6,5.2
		C287.1,145,290.9,146.9,291.2,148.4z M213.5,82.3c-1.3,0-2.2,0.2-3.1,0.4c0,0,0,0.1,0,0.1c0.1,0,0.1,0,0.2,0
		c0.6,1.2,1.7,2.1,2.4,3.1c0.6,1.2,1.1,2.4,1.7,3.7c0.1-0.1,0.2-0.2,0.2-0.2c1.1-0.8,1.6-2,1.6-3.8c-0.5-0.5-0.5-1.1-0.9-1.6
		C215.1,83.3,214.1,82.9,213.5,82.3z"/>
	<path id="Path_3" class="st1" d="M131.5,205.3h28.6c3.4,0,6.6-0.7,9.1-1.9c4.3-2,6.4-4.6,6.4-8.1V188c0-2.8-2.4-5.5-7.1-7.3
		c-2.4-0.9-5.5-1.5-8.4-1.5h-12c-4,0-5.9-1.2-6.5-3.9c-0.1-0.3-0.1-0.6-0.1-0.9v-4.5c0-0.2,0-0.5,0.1-0.8c0.5-2.1,1.6-2.6,5.1-3
		c0.3,0,0.7,0,0.9,0h28.4v-6.6h-27.9c-4,0-6.2,0.2-8.1,0.8c-5.9,1.8-8.5,4.7-8.5,9.8v5.8c0,4.5,5,8.3,13.6,9.2
		c0.9,0.1,1.9,0.1,2.9,0.1h10.3c0.4,0,0.8,0,1.1,0.1c3.1,0.3,4.5,0.8,5.4,2c0.6,0.6,0.8,1.1,0.8,1.8v5.8c0,0.7-0.5,1.6-1.4,2.4
		c-0.9,0.8-2.4,1.3-4.3,1.4c-0.4,0-0.6,0.1-1,0.1h-27.5V205.3z M237.7,193.8c0,6.8,5.1,10.6,15.3,11.4c1,0.1,1.9,0.2,2.9,0.2h25.9
		v-6.6h-26.1c-5.8,0-8-1.4-8-5v-34.3h-10V193.8z"/>
	<path id="Path_4" class="st2" d="M182,194.1v-23.6c0-6,4.3-9.7,12.6-10.8c0.9-0.1,1.8-0.2,2.7-0.2h18.9c1,0,1.8,0.1,2.8,0.2
		c8.3,1.1,12.5,4.8,12.5,10.8v23.6c0,4.9-1.7,7.5-5.9,9.2l9.8,8.8h-11.5l-7.9-7.2l-8,0.5h-10.7c-1.8,0-3.7-0.2-5.8-0.8
		C185.1,203,182,199.6,182,194.1z M192.8,193.6c0,0.3,0.2,0.6,0.2,1c0.5,2.7,3.1,4.3,7.1,4.3h9l-8.2-7.5h11.5l7.2,6.6
		c1.4-0.8,2.2-1.8,2.5-3.2c0.1-0.3,0.1-0.7,0.1-1v-22.6c0-0.3,0-0.6-0.1-0.9c-0.5-2.6-3.1-4-7-4h-15c-4.4,0-7.3,1.9-7.3,5V193.6z
		 M286.4,199.9h-2v-1.1h5.3v1.1h-1.9v5.6h-1.4V199.9z M297.4,200.3l-1.9,5.1h-1l-1.9-5.1h-0.1v5.1h-1.3v-6.7h2l1.8,4.6l1.7-4.6h2.1
		v6.7h-1.4V200.3z"/>
</g>
</svg>
